<svg width="23" height="24" viewBox="0 0 23 24" fill="none" xmlns="http://www.w3.org/2000/svg">
<path d="M17.9743 14.385L16.391 8.68834C15.9269 7.01945 14.9182 5.55358 13.5254 4.52373C12.1326 3.49388 10.4355 2.95916 8.70384 3.00456C6.97222 3.04996 5.30546 3.67288 3.96851 4.7743C2.63155 5.87571 1.70112 7.39243 1.32512 9.08334L0.099285 14.5958C-0.0361188 15.205 -0.0329883 15.8367 0.108446 16.4444C0.24988 17.0522 0.526005 17.6204 0.916437 18.1071C1.30687 18.5939 1.80164 18.9867 2.36421 19.2566C2.92679 19.5266 3.5428 19.6667 4.16679 19.6667H5.09512C5.28638 20.6086 5.79739 21.4554 6.54157 22.0637C7.28575 22.6719 8.21732 23.0042 9.17845 23.0042C10.1396 23.0042 11.0712 22.6719 11.8153 22.0637C12.5595 21.4554 13.0705 20.6086 13.2618 19.6667H13.9601C14.6025 19.6667 15.2361 19.5183 15.8116 19.2329C16.387 18.9475 16.8887 18.5329 17.2775 18.0216C17.6662 17.5102 17.9314 16.9159 18.0525 16.285C18.1735 15.6542 18.147 15.0039 17.9751 14.385H17.9743ZM9.17845 21.3333C8.66323 21.3312 8.16126 21.1699 7.7412 20.8716C7.32115 20.5733 7.00352 20.1524 6.83179 19.6667H11.5251C11.3534 20.1524 11.0358 20.5733 10.6157 20.8716C10.1956 21.1699 9.69367 21.3312 9.17845 21.3333ZM15.9501 17.0125C15.7179 17.3206 15.4171 17.5702 15.0715 17.7416C14.7259 17.9131 14.3451 18.0015 13.9593 18H4.16679C3.79244 17.9999 3.42289 17.9158 3.0854 17.7538C2.74792 17.5918 2.45112 17.3561 2.21692 17.0641C1.98272 16.7721 1.81709 16.4312 1.73225 16.0665C1.64742 15.7019 1.64555 15.3229 1.72679 14.9575L2.95179 9.44417C3.24708 8.11601 3.97787 6.92468 5.028 6.05955C6.07812 5.19442 7.38731 4.70515 8.74743 4.66952C10.1076 4.63389 11.4406 5.05394 12.5345 5.8629C13.6285 6.67186 14.4207 7.8233 14.7851 9.13417L16.3685 14.8308C16.4731 15.202 16.4897 15.5924 16.4171 15.9711C16.3445 16.3498 16.1846 16.7064 15.9501 17.0125Z" fill="#A5A5C4"/>
<circle cx="20" cy="3" r="3" fill="#7947F7"/>
</svg>
