<svg width="24" height="24" viewBox="0 0 24 24" fill="none" xmlns="http://www.w3.org/2000/svg">
<circle cx="12" cy="12" r="10" fill="#FFEBF2" stroke="white" stroke-width="4"/>
<path d="M15.3333 11.3333H12.6667V8.66667C12.6667 8.48986 12.5964 8.32029 12.4714 8.19526C12.3464 8.07024 12.1768 8 12 8C11.8232 8 11.6536 8.07024 11.5286 8.19526C11.4036 8.32029 11.3333 8.48986 11.3333 8.66667V11.3333H8.66667C8.48986 11.3333 8.32029 11.4036 8.19526 11.5286C8.07024 11.6536 8 11.8232 8 12C8 12.1768 8.07024 12.3464 8.19526 12.4714C8.32029 12.5964 8.48986 12.6667 8.66667 12.6667H11.3333V15.3333C11.3333 15.5101 11.4036 15.6797 11.5286 15.8047C11.6536 15.9298 11.8232 16 12 16C12.1768 16 12.3464 15.9298 12.4714 15.8047C12.5964 15.6797 12.6667 15.5101 12.6667 15.3333V12.6667H15.3333C15.5101 12.6667 15.6797 12.5964 15.8047 12.4714C15.9298 12.3464 16 12.1768 16 12C16 11.8232 15.9298 11.6536 15.8047 11.5286C15.6797 11.4036 15.5101 11.3333 15.3333 11.3333Z" fill="#FB2B76"/>
</svg>
