<svg width="16" height="16" viewBox="0 0 16 16" fill="none" xmlns="http://www.w3.org/2000/svg">
<path d="M13.9998 8.28265V7.33331C13.9998 5.74201 13.3677 4.21589 12.2424 3.09067C11.1172 1.96545 9.5911 1.33331 7.9998 1.33331C6.40851 1.33331 4.88238 1.96545 3.75716 3.09067C2.63195 4.21589 1.9998 5.74201 1.9998 7.33331V8.28265C1.30058 8.59054 0.728338 9.12928 0.378885 9.80869C0.0294327 10.4881 -0.0760217 11.2669 0.080176 12.0148C0.236374 12.7627 0.644743 13.4342 1.23692 13.9169C1.82909 14.3997 2.56913 14.6644 3.33314 14.6666C3.68676 14.6666 4.0259 14.5262 4.27595 14.2761C4.526 14.0261 4.66647 13.6869 4.66647 13.3333V9.33331C4.66647 8.97969 4.526 8.64055 4.27595 8.3905C4.0259 8.14046 3.68676 7.99998 3.33314 7.99998V7.33331C3.33314 6.09564 3.8248 4.90865 4.69997 4.03348C5.57514 3.15831 6.76213 2.66665 7.9998 2.66665C9.23748 2.66665 10.4245 3.15831 11.2996 4.03348C12.1748 4.90865 12.6665 6.09564 12.6665 7.33331V7.99998C12.3128 7.99998 11.9737 8.14046 11.7237 8.3905C11.4736 8.64055 11.3331 8.97969 11.3331 9.33331V13.3333H9.33314C9.15633 13.3333 8.98676 13.4036 8.86173 13.5286C8.73671 13.6536 8.66647 13.8232 8.66647 14C8.66647 14.1768 8.73671 14.3464 8.86173 14.4714C8.98676 14.5964 9.15633 14.6666 9.33314 14.6666H12.6665C13.4305 14.6644 14.1705 14.3997 14.7627 13.9169C15.3549 13.4342 15.7632 12.7627 15.9194 12.0148C16.0756 11.2669 15.9702 10.4881 15.6207 9.80869C15.2713 9.12928 14.699 8.59054 13.9998 8.28265ZM3.33314 13.3333C2.8027 13.3333 2.294 13.1226 1.91892 12.7475C1.54385 12.3725 1.33314 11.8637 1.33314 11.3333C1.33314 10.8029 1.54385 10.2942 1.91892 9.9191C2.294 9.54403 2.8027 9.33331 3.33314 9.33331V13.3333ZM12.6665 13.3333V9.33331C13.1969 9.33331 13.7056 9.54403 14.0807 9.9191C14.4558 10.2942 14.6665 10.8029 14.6665 11.3333C14.6665 11.8637 14.4558 12.3725 14.0807 12.7475C13.7056 13.1226 13.1969 13.3333 12.6665 13.3333Z" fill="#8383B0"/>
</svg>
