<svg width="14" height="14" viewBox="0 0 14 14" fill="none" xmlns="http://www.w3.org/2000/svg">
<g clip-path="url(#clip0)">
<path d="M7.58268 11.6667C8.35595 11.6657 9.09727 11.3581 9.64405 10.8114C10.1908 10.2646 10.4984 9.52326 10.4993 8.75V3.64176C10.5003 3.33513 10.4403 3.03138 10.3229 2.7481C10.2056 2.46482 10.0332 2.20766 9.81568 1.99151L8.50785 0.683676C8.2917 0.466194 8.03453 0.293778 7.75125 0.176422C7.46798 0.0590653 7.16422 -0.000897137 6.8576 1.01439e-05H4.08268C3.30942 0.000936393 2.56809 0.308524 2.02131 0.855304C1.47453 1.40208 1.16694 2.14341 1.16602 2.91667V8.75C1.16694 9.52326 1.47453 10.2646 2.02131 10.8114C2.56809 11.3581 3.30942 11.6657 4.08268 11.6667H7.58268ZM2.33268 8.75V2.91667C2.33268 2.45254 2.51706 2.00743 2.84525 1.67924C3.17343 1.35105 3.61855 1.16668 4.08268 1.16668C4.08268 1.16668 6.9521 1.17484 6.99935 1.18068V2.33334C6.99935 2.64276 7.12227 2.93951 7.34106 3.1583C7.55985 3.37709 7.8566 3.50001 8.16602 3.50001H9.31868C9.32452 3.54726 9.33268 8.75 9.33268 8.75C9.33268 9.21413 9.14831 9.65925 8.82012 9.98743C8.49193 10.3156 8.04681 10.5 7.58268 10.5H4.08268C3.61855 10.5 3.17343 10.3156 2.84525 9.98743C2.51706 9.65925 2.33268 9.21413 2.33268 8.75ZM12.8327 4.66667V11.0833C12.8318 11.8566 12.5242 12.5979 11.9774 13.1447C11.4306 13.6915 10.6893 13.9991 9.91602 14H4.66602C4.51131 14 4.36293 13.9385 4.25354 13.8291C4.14414 13.7197 4.08268 13.5714 4.08268 13.4167C4.08268 13.262 4.14414 13.1136 4.25354 13.0042C4.36293 12.8948 4.51131 12.8333 4.66602 12.8333H9.91602C10.3801 12.8333 10.8253 12.649 11.1535 12.3208C11.4816 11.9926 11.666 11.5475 11.666 11.0833V4.66667C11.666 4.51196 11.7275 4.36359 11.8369 4.25419C11.9463 4.1448 12.0946 4.08334 12.2493 4.08334C12.4041 4.08334 12.5524 4.1448 12.6618 4.25419C12.7712 4.36359 12.8327 4.51196 12.8327 4.66667Z" fill="#8383B0"/>
</g>
<defs>
<clipPath id="clip0">
<rect width="14" height="14" fill="white"/>
</clipPath>
</defs>
</svg>
