<svg width="16" height="16" viewBox="0 0 16 16" fill="none" xmlns="http://www.w3.org/2000/svg">
<g clip-path="url(#clip0)">
<path d="M15.8041 10.1953C15.679 10.0704 15.5095 10.0002 15.3327 10.0002C15.1559 10.0002 14.9864 10.0704 14.8614 10.1953L12.9994 12.0573L11.1374 10.1953C11.0117 10.0739 10.8433 10.0067 10.6685 10.0082C10.4937 10.0097 10.3265 10.0799 10.2029 10.2035C10.0793 10.3271 10.0091 10.4943 10.0076 10.6691C10.0061 10.8439 10.0733 11.0123 10.1947 11.138L12.0567 13L10.1947 14.862C10.1311 14.9235 10.0803 14.9971 10.0453 15.0784C10.0104 15.1598 9.99201 15.2472 9.99124 15.3358C9.99047 15.4243 10.0073 15.5121 10.0409 15.594C10.0744 15.6759 10.1239 15.7504 10.1865 15.813C10.2491 15.8755 10.3235 15.9251 10.4054 15.9586C10.4874 15.9921 10.5751 16.009 10.6637 16.0082C10.7522 16.0074 10.8397 15.989 10.921 15.9541C11.0023 15.9192 11.0759 15.8684 11.1374 15.8047L12.9994 13.9427L14.8614 15.8047C14.9871 15.9261 15.1555 15.9933 15.3303 15.9918C15.5051 15.9903 15.6723 15.9202 15.7959 15.7966C15.9195 15.673 15.9897 15.5058 15.9912 15.331C15.9927 15.1562 15.9255 14.9878 15.8041 14.862L13.9421 13L15.8041 11.138C15.929 11.013 15.9992 10.8435 15.9992 10.6667C15.9992 10.4899 15.929 10.3204 15.8041 10.1953Z" fill="#8383B0"/>
<path d="M8 14.6667C6.68146 14.6667 5.39253 14.2757 4.2962 13.5431C3.19987 12.8106 2.34539 11.7694 1.84081 10.5512C1.33622 9.33305 1.2042 7.99261 1.46144 6.6994C1.71867 5.4062 2.35361 4.21831 3.28596 3.28596C4.21831 2.35361 5.4062 1.71867 6.6994 1.46144C7.99261 1.2042 9.33305 1.33622 10.5512 1.84081C11.7694 2.34539 12.8106 3.19987 13.5431 4.2962C14.2757 5.39253 14.6667 6.68146 14.6667 8C14.6667 8.17682 14.7369 8.34638 14.8619 8.47141C14.987 8.59643 15.1565 8.66667 15.3333 8.66667C15.5101 8.66667 15.6797 8.59643 15.8047 8.47141C15.9298 8.34638 16 8.17682 16 8C16 6.41775 15.5308 4.87104 14.6518 3.55544C13.7727 2.23985 12.5233 1.21447 11.0615 0.608967C9.59966 0.00346629 7.99113 -0.15496 6.43928 0.153721C4.88743 0.462403 3.46197 1.22433 2.34315 2.34315C1.22433 3.46197 0.462403 4.88743 0.153721 6.43928C-0.15496 7.99113 0.00346629 9.59966 0.608967 11.0615C1.21447 12.5233 2.23985 13.7727 3.55544 14.6518C4.87104 15.5308 6.41775 16 8 16C8.17682 16 8.34638 15.9298 8.47141 15.8047C8.59643 15.6797 8.66667 15.5101 8.66667 15.3333C8.66667 15.1565 8.59643 14.987 8.47141 14.8619C8.34638 14.7369 8.17682 14.6667 8 14.6667Z" fill="#8383B0"/>
<path d="M8.00004 4C7.82323 4 7.65366 4.07024 7.52864 4.19526C7.40362 4.32029 7.33338 4.48985 7.33338 4.66667V7.72399L5.52872 9.52865C5.46505 9.59015 5.41426 9.66372 5.37932 9.74505C5.34438 9.82639 5.32599 9.91387 5.32522 10.0024C5.32445 10.0909 5.34132 10.1787 5.37484 10.2606C5.40836 10.3426 5.45786 10.417 5.52046 10.4796C5.58305 10.5422 5.65749 10.5917 5.73942 10.6252C5.82135 10.6587 5.90913 10.6756 5.99765 10.6748C6.08617 10.674 6.17365 10.6557 6.25499 10.6207C6.33632 10.5858 6.40988 10.535 6.47138 10.4713L8.47137 8.47132C8.59641 8.34633 8.66667 8.17679 8.66671 7.99999V4.66667C8.66671 4.48985 8.59647 4.32029 8.47144 4.19526C8.34642 4.07024 8.17685 4 8.00004 4Z" fill="#8383B0"/>
</g>
<defs>
<clipPath id="clip0">
<rect width="16" height="16" fill="white"/>
</clipPath>
</defs>
</svg>
