<svg width="42" height="42" viewBox="0 0 42 42" fill="none" xmlns="http://www.w3.org/2000/svg">
<rect width="42" height="42" rx="10" fill="#FF8E8E"/>
<g clip-path="url(#clip0)">
<path d="M22.2879 15.6667C22.8302 15.6672 23.3501 15.8829 23.7336 16.2663C24.1171 16.6498 24.3327 17.1697 24.3333 17.712C24.3333 17.8888 24.4035 18.0584 24.5285 18.1834C24.6535 18.3084 24.8231 18.3787 24.9999 18.3787C25.1767 18.3787 25.3463 18.3084 25.4713 18.1834C25.5963 18.0584 25.6666 17.8888 25.6666 17.712V17.6667C25.6666 17.654 25.6666 17.6427 25.6666 17.63C25.6443 16.7485 25.2787 15.9105 24.6475 15.2947C24.0164 14.6789 23.1697 14.3339 22.2879 14.3333H21.6666V13.6667C21.6666 13.4899 21.5963 13.3203 21.4713 13.1953C21.3463 13.0702 21.1767 13 20.9999 13C20.8231 13 20.6535 13.0702 20.5285 13.1953C20.4035 13.3203 20.3333 13.4899 20.3333 13.6667V14.3333H19.7119C18.9101 14.3342 18.1348 14.6202 17.5244 15.1401C16.9141 15.6601 16.5086 16.3801 16.3804 17.1716C16.2521 17.9631 16.4095 18.7744 16.8244 19.4604C17.2394 20.1465 17.8848 20.6627 18.6453 20.9167L20.3333 21.48V26.3333H19.7119C19.1696 26.3328 18.6497 26.1171 18.2662 25.7337C17.8828 25.3502 17.6671 24.8303 17.6666 24.288C17.6666 24.1112 17.5963 23.9416 17.4713 23.8166C17.3463 23.6916 17.1767 23.6213 16.9999 23.6213C16.8231 23.6213 16.6535 23.6916 16.5285 23.8166C16.4035 23.9416 16.3333 24.1112 16.3333 24.288V24.3333C16.3333 24.346 16.3333 24.3573 16.3333 24.37C16.3555 25.2515 16.7212 26.0895 17.3523 26.7053C17.9834 27.3211 18.8301 27.6661 19.7119 27.6667H20.3333V28.3333C20.3333 28.5101 20.4035 28.6797 20.5285 28.8047C20.6535 28.9298 20.8231 29 20.9999 29C21.1767 29 21.3463 28.9298 21.4713 28.8047C21.5963 28.6797 21.6666 28.5101 21.6666 28.3333V27.6667H22.2879C23.0897 27.6658 23.8651 27.3798 24.4754 26.8599C25.0857 26.3399 25.4912 25.6199 25.6195 24.8284C25.7477 24.0369 25.5903 23.2256 25.1754 22.5396C24.7605 21.8535 24.1151 21.3373 23.3546 21.0833L21.6666 20.52V15.6667H22.2879ZM22.9346 22.3473C23.3955 22.5008 23.7868 22.8132 24.0384 23.2288C24.29 23.6444 24.3854 24.136 24.3076 24.6155C24.2298 25.0951 23.9839 25.5313 23.6138 25.846C23.2437 26.1608 22.7737 26.3335 22.2879 26.3333H21.6666V21.9247L22.9346 22.3473ZM20.3333 20.0753L19.0666 19.6527C18.6057 19.4993 18.2145 19.1869 17.9629 18.7715C17.7114 18.356 17.6158 17.8646 17.6935 17.3851C17.7711 16.9057 18.0168 16.4695 18.3866 16.1546C18.7564 15.8398 19.2262 15.6668 19.7119 15.6667H20.3333V20.0753Z" fill="white"/>
</g>
<defs>
<clipPath id="clip0">
<rect width="16" height="16" fill="white" transform="translate(13 13)"/>
</clipPath>
</defs>
</svg>
