<svg width="12" height="12" viewBox="0 0 12 12" fill="none" xmlns="http://www.w3.org/2000/svg">
<g clip-path="url(#clip0)">
<path d="M6 2C6.55228 2 7 1.55228 7 1C7 0.447715 6.55228 0 6 0C5.44771 0 5 0.447715 5 1C5 1.55228 5.44771 2 6 2Z" fill="#8383B0"/>
<path d="M6 7C6.55228 7 7 6.55228 7 6C7 5.44771 6.55228 5 6 5C5.44771 5 5 5.44771 5 6C5 6.55228 5.44771 7 6 7Z" fill="#8383B0"/>
<path d="M6 12C6.55228 12 7 11.5523 7 11C7 10.4477 6.55228 10 6 10C5.44771 10 5 10.4477 5 11C5 11.5523 5.44771 12 6 12Z" fill="#8383B0"/>
</g>
<defs>
<clipPath id="clip0">
<rect width="12" height="12" fill="white"/>
</clipPath>
</defs>
</svg>
