<svg width="14" height="14" viewBox="0 0 14 14" fill="none" xmlns="http://www.w3.org/2000/svg">
<g clip-path="url(#clip0)">
<path d="M5.76189 10.5712C5.92441 10.7338 6.11738 10.8628 6.32977 10.9508C6.54216 11.0388 6.76982 11.0841 6.99972 11.0841C7.22963 11.0841 7.45729 11.0388 7.66968 10.9508C7.88207 10.8628 8.07504 10.7338 8.23756 10.5712L10.1106 8.69808C10.2111 8.58701 10.2649 8.44157 10.2611 8.29188C10.2572 8.14219 10.196 7.99971 10.09 7.89394C9.984 7.78817 9.84139 7.72721 9.69169 7.72368C9.54199 7.72016 9.39666 7.77433 9.28581 7.87499L7.57897 9.58241L7.58306 0.583333C7.58306 0.428623 7.5216 0.28025 7.4122 0.170854C7.30281 0.0614581 7.15443 0 6.99972 0V0C6.84501 0 6.69664 0.0614581 6.58725 0.170854C6.47785 0.28025 6.41639 0.428623 6.41639 0.583333L6.41114 9.57133L4.71364 7.87499C4.60418 7.76562 4.45576 7.7042 4.30102 7.70425C4.14628 7.70431 3.9979 7.76583 3.88852 7.87529C3.77914 7.98474 3.71772 8.13317 3.71777 8.28791C3.71783 8.44265 3.77935 8.59103 3.88881 8.70041L5.76189 10.5712Z" fill="#8383B0"/>
<path d="M13.4167 9.33337C13.262 9.33337 13.1136 9.39483 13.0042 9.50423C12.8948 9.61363 12.8333 9.762 12.8333 9.91671V12.2501C12.8333 12.4048 12.7719 12.5531 12.6625 12.6625C12.5531 12.7719 12.4047 12.8334 12.25 12.8334H1.75C1.59529 12.8334 1.44692 12.7719 1.33752 12.6625C1.22812 12.5531 1.16667 12.4048 1.16667 12.2501V9.91671C1.16667 9.762 1.10521 9.61363 0.995812 9.50423C0.886416 9.39483 0.738043 9.33337 0.583333 9.33337C0.428624 9.33337 0.280251 9.39483 0.170854 9.50423C0.0614582 9.61363 0 9.762 0 9.91671L0 12.2501C0 12.7142 0.184374 13.1593 0.512563 13.4875C0.840752 13.8157 1.28587 14.0001 1.75 14.0001H12.25C12.7141 14.0001 13.1592 13.8157 13.4874 13.4875C13.8156 13.1593 14 12.7142 14 12.2501V9.91671C14 9.762 13.9385 9.61363 13.8291 9.50423C13.7197 9.39483 13.5714 9.33337 13.4167 9.33337Z" fill="#8383B0"/>
</g>
<defs>
<clipPath id="clip0">
<rect width="14" height="14" fill="white"/>
</clipPath>
</defs>
</svg>
