<svg width="14" height="14" viewBox="0 0 14 14" fill="none" xmlns="http://www.w3.org/2000/svg">
<g clip-path="url(#clip0)">
<path d="M11.0833 0.583336H2.91667C2.1434 0.584262 1.40208 0.89185 0.855295 1.43863C0.308514 1.98541 0.00092625 2.72674 0 3.5L0 10.5C0.00092625 11.2733 0.308514 12.0146 0.855295 12.5614C1.40208 13.1082 2.1434 13.4157 2.91667 13.4167H11.0833C11.8566 13.4157 12.5979 13.1082 13.1447 12.5614C13.6915 12.0146 13.9991 11.2733 14 10.5V3.5C13.9991 2.72674 13.6915 1.98541 13.1447 1.43863C12.5979 0.89185 11.8566 0.584262 11.0833 0.583336ZM2.91667 1.75H11.0833C11.4326 1.75069 11.7737 1.85589 12.0627 2.05205C12.3517 2.24822 12.5754 2.52639 12.705 2.85075L8.23783 7.3185C7.90908 7.64593 7.46399 7.82977 7 7.82977C6.53601 7.82977 6.09092 7.64593 5.76217 7.3185L1.295 2.85075C1.42459 2.52639 1.64827 2.24822 1.93728 2.05205C2.22628 1.85589 2.56738 1.75069 2.91667 1.75ZM11.0833 12.25H2.91667C2.45254 12.25 2.00742 12.0656 1.67923 11.7374C1.35104 11.4092 1.16667 10.9641 1.16667 10.5V4.375L4.93733 8.14333C5.48487 8.68948 6.22665 8.99619 7 8.99619C7.77335 8.99619 8.51513 8.68948 9.06267 8.14333L12.8333 4.375V10.5C12.8333 10.9641 12.649 11.4092 12.3208 11.7374C11.9926 12.0656 11.5475 12.25 11.0833 12.25Z" fill="#26BEFF"/>
</g>
<defs>
<clipPath id="clip0">
<rect width="14" height="14" fill="white"/>
</clipPath>
</defs>
</svg>
