<svg width="40" height="40" viewBox="0 0 40 40" fill="none" xmlns="http://www.w3.org/2000/svg">
<path d="M17.6 6.19902V4.74565C17.6 3.86202 16.8837 3.14563 16 3.14563H1.60002C0.716304 3.14563 0 3.86193 0 4.74565V14.1627H40V8.86572C40 7.98209 39.2837 7.2657 38.4 7.2657H18.6667C18.0776 7.2657 17.6 6.78814 17.6 6.19902Z" fill="#F6C358"/>
<path d="M37.8666 36.8544H2.13337C0.955128 36.8544 0 35.8993 0 34.721V13.782H17.6597C18.1097 13.782 18.5389 13.5925 18.842 13.26L20.8077 11.104C21.1109 10.7715 21.5401 10.582 21.9901 10.582H40V34.721C40 35.8993 39.0449 36.8544 37.8666 36.8544Z" fill="#FCD462"/>
<g clip-path="url(#clip0)">
<path d="M17.8463 24C17.2986 24 16.7632 23.8376 16.3078 23.5333C15.8524 23.229 15.4975 22.7965 15.2879 22.2905C15.0783 21.7845 15.0235 21.2277 15.1303 20.6905C15.2372 20.1533 15.5009 19.6599 15.8882 19.2726C16.2755 18.8853 16.7689 18.6216 17.3061 18.5147C17.8433 18.4079 18.4001 18.4627 18.9061 18.6723C19.4121 18.8819 19.8446 19.2369 20.1489 19.6923C20.4532 20.1477 20.6156 20.6831 20.6156 21.2308C20.6148 21.965 20.3227 22.6689 19.8036 23.188C19.2844 23.7072 18.5805 23.9992 17.8463 24ZM17.8463 19.6923C17.5421 19.6923 17.2446 19.7825 16.9916 19.9516C16.7386 20.1206 16.5414 20.3609 16.425 20.642C16.3085 20.9231 16.2781 21.2325 16.3374 21.5309C16.3968 21.8293 16.5433 22.1035 16.7585 22.3186C16.9736 22.5338 17.2478 22.6803 17.5462 22.7397C17.8446 22.799 18.154 22.7686 18.4351 22.6521C18.7162 22.5357 18.9565 22.3385 19.1255 22.0855C19.2946 21.8325 19.3848 21.535 19.3848 21.2308C19.3848 20.8227 19.2227 20.4314 18.9342 20.1429C18.6457 19.8544 18.2544 19.6923 17.8463 19.6923ZM22.4617 30.1538V29.8462C22.4617 28.6221 21.9755 27.4481 21.1099 26.5826C20.2444 25.717 19.0704 25.2308 17.8463 25.2308C16.6223 25.2308 15.4483 25.717 14.5828 26.5826C13.7172 27.4481 13.231 28.6221 13.231 29.8462L13.231 30.1538C13.231 30.3171 13.2958 30.4736 13.4112 30.589C13.5266 30.7044 13.6831 30.7692 13.8463 30.7692C14.0096 30.7692 14.1661 30.7044 14.2815 30.589C14.3969 30.4736 14.4617 30.3171 14.4617 30.1538V29.8462C14.4617 28.9485 14.8183 28.0876 15.4531 27.4529C16.0878 26.8181 16.9487 26.4615 17.8463 26.4615C18.744 26.4615 19.6049 26.8181 20.2396 27.4529C20.8744 28.0876 21.231 28.9485 21.231 29.8462V30.1538C21.231 30.3171 21.2958 30.4736 21.4112 30.589C21.5266 30.7044 21.6831 30.7692 21.8463 30.7692C22.0096 30.7692 22.1661 30.7044 22.2815 30.589C22.3969 30.4736 22.4617 30.3171 22.4617 30.1538ZM28.0002 27.0769C28.0002 26.2453 27.7594 25.4315 27.3071 24.7338C26.8547 24.036 26.2101 23.4841 25.4509 23.1446C24.6918 22.8051 23.8506 22.6927 23.029 22.8208C22.2073 22.9489 21.4403 23.312 20.8205 23.8665C20.7594 23.9201 20.7096 23.9854 20.6739 24.0584C20.6382 24.1314 20.6173 24.2108 20.6124 24.2919C20.6076 24.3731 20.6188 24.4544 20.6456 24.5312C20.6723 24.6079 20.714 24.6786 20.7682 24.7392C20.8225 24.7998 20.8881 24.849 20.9615 24.884C21.0349 24.9191 21.1144 24.9392 21.1956 24.9433C21.2768 24.9474 21.358 24.9354 21.4345 24.908C21.511 24.8805 21.5814 24.8382 21.6414 24.7834C22.0842 24.3875 22.632 24.1281 23.2189 24.0367C23.8058 23.9453 24.4066 24.0257 24.9487 24.2682C25.4909 24.5107 25.9514 24.9049 26.2744 25.4033C26.5975 25.9017 26.7694 26.483 26.7694 27.0769C26.7694 27.2401 26.8343 27.3967 26.9497 27.5121C27.0651 27.6275 27.2216 27.6923 27.3848 27.6923C27.548 27.6923 27.7045 27.6275 27.8199 27.5121C27.9354 27.3967 28.0002 27.2401 28.0002 27.0769ZM24.0002 21.5385C23.4525 21.5385 22.9171 21.376 22.4617 21.0718C22.0063 20.7675 21.6514 20.335 21.4418 19.829C21.2322 19.323 21.1773 18.7662 21.2842 18.229C21.391 17.6918 21.6548 17.1984 22.042 16.8111C22.4293 16.4238 22.9228 16.1601 23.4599 16.0532C23.9971 15.9464 24.5539 16.0012 25.0599 16.2108C25.5659 16.4204 25.9984 16.7753 26.3027 17.2307C26.607 17.6861 26.7694 18.2215 26.7694 18.7692C26.7686 19.5034 26.4766 20.2073 25.9574 20.7265C25.4383 21.2456 24.7344 21.5376 24.0002 21.5385ZM24.0002 17.2308C23.6959 17.2308 23.3985 17.321 23.1455 17.49C22.8925 17.6591 22.6953 17.8994 22.5788 18.1805C22.4624 18.4616 22.4319 18.7709 22.4913 19.0694C22.5507 19.3678 22.6972 19.6419 22.9123 19.8571C23.1275 20.0722 23.4016 20.2188 23.7001 20.2781C23.9985 20.3375 24.3078 20.307 24.5889 20.1906C24.8701 20.0741 25.1103 19.877 25.2794 19.624C25.4484 19.371 25.5387 19.0735 25.5387 18.7692C25.5387 18.3612 25.3766 17.9699 25.088 17.6814C24.7995 17.3929 24.4082 17.2308 24.0002 17.2308Z" fill="white"/>
</g>
<defs>
<clipPath id="clip0">
<rect width="16" height="16" fill="white" transform="translate(12 16)"/>
</clipPath>
</defs>
</svg>
