<svg width="40" height="40" viewBox="0 0 40 40" fill="none" xmlns="http://www.w3.org/2000/svg">
<path d="M17.6 6.19902V4.74565C17.6 3.86202 16.8837 3.14563 16 3.14563H1.60002C0.716304 3.14563 0 3.86193 0 4.74565V14.1627H40V8.86572C40 7.98209 39.2837 7.2657 38.4 7.2657H18.6667C18.0776 7.2657 17.6 6.78814 17.6 6.19902Z" fill="#F6C358"/>
<path d="M37.8666 36.8544H2.13337C0.955128 36.8544 0 35.8992 0 34.721V13.782H17.6597C18.1097 13.782 18.5389 13.5925 18.842 13.26L20.8077 11.104C21.1109 10.7715 21.5401 10.582 21.9901 10.582H40V34.721C40 35.8992 39.0449 36.8544 37.8666 36.8544Z" fill="#FCD462"/>
</svg>
