<svg width="16" height="16" viewBox="0 0 16 16" fill="none" xmlns="http://www.w3.org/2000/svg">
<g clip-path="url(#clip0)">
<path d="M15.3 6.4C15.175 6.27502 15.0055 6.20481 14.8287 6.20481C14.6519 6.20481 14.4824 6.27502 14.3573 6.4L7.09602 13.6927C6.78649 14.0022 6.41902 14.2478 6.01459 14.4154C5.61016 14.5829 5.17668 14.6692 4.73892 14.6692C3.85481 14.6693 3.00689 14.3181 2.38168 13.693C1.75648 13.0679 1.40521 12.22 1.40515 11.3359C1.40508 10.4518 1.75623 9.60387 2.38135 8.97867L9.41402 1.91733C9.79008 1.54726 10.2971 1.34078 10.8247 1.34286C11.3523 1.34495 11.8578 1.55544 12.2309 1.92847C12.604 2.3015 12.8146 2.80686 12.8168 3.33447C12.819 3.86208 12.6127 4.36918 12.2427 4.74533L5.21002 11.8067C5.08318 11.9282 4.91432 11.996 4.73868 11.996C4.56304 11.996 4.39418 11.9282 4.26735 11.8067C4.14237 11.6816 4.07216 11.5121 4.07216 11.3353C4.07216 11.1586 4.14237 10.989 4.26735 10.864L10.5287 4.574C10.6501 4.44826 10.7173 4.27986 10.7158 4.10506C10.7143 3.93027 10.6442 3.76306 10.5206 3.63945C10.397 3.51585 10.2297 3.44574 10.0549 3.44422C9.88015 3.4427 9.71175 3.50989 9.58602 3.63133L3.32468 9.92133C3.13893 10.1071 2.99158 10.3275 2.89105 10.5702C2.79052 10.8129 2.73878 11.073 2.73878 11.3357C2.73878 11.5983 2.79052 11.8584 2.89105 12.1011C2.99158 12.3438 3.13893 12.5643 3.32468 12.75C3.70576 13.1136 4.21227 13.3165 4.73902 13.3165C5.26576 13.3165 5.77227 13.1136 6.15335 12.75L13.1853 5.688C13.7973 5.0602 14.1374 4.21657 14.1317 3.33985C14.1261 2.46313 13.7753 1.62392 13.1553 1.00401C12.5353 0.384111 11.6961 0.033429 10.8194 0.0279357C9.94265 0.0224424 9.09906 0.36258 8.47135 0.974666L1.43868 8.036C0.563468 8.91121 0.0717773 10.0983 0.0717773 11.336C0.0717774 12.5737 0.563468 13.7608 1.43868 14.636C2.3139 15.5112 3.50094 16.0029 4.73868 16.0029C5.97642 16.0029 7.16347 15.5112 8.03868 14.636L15.3 7.34533C15.3623 7.28338 15.4117 7.20973 15.4455 7.12861C15.4792 7.0475 15.4965 6.96051 15.4965 6.87266C15.4965 6.78482 15.4792 6.69783 15.4455 6.61672C15.4117 6.5356 15.3623 6.46195 15.3 6.4Z" fill="#A5A5C4"/>
</g>
<defs>
<clipPath id="clip0">
<rect width="16" height="16" fill="white"/>
</clipPath>
</defs>
</svg>
