<svg width="14" height="14" viewBox="0 0 14 14" fill="none" xmlns="http://www.w3.org/2000/svg">
<g clip-path="url(#clip0)">
<path d="M8.07584 10.0724L6.173 11.9752C5.62054 12.5129 4.87859 12.8115 4.10768 12.8063C3.33677 12.8011 2.59889 12.4927 2.05368 11.9476C1.50848 11.4026 1.19979 10.6648 1.19441 9.89385C1.18902 9.12295 1.48738 8.38091 2.02492 7.8283L3.92775 5.92372C4.03713 5.81427 4.09855 5.66584 4.09849 5.5111C4.09844 5.35636 4.03692 5.20798 3.92746 5.0986C3.818 4.98922 3.66958 4.9278 3.51484 4.92786C3.3601 4.92791 3.21171 4.98943 3.10233 5.09889L1.20008 7.00347C0.43141 7.77253 -0.000273369 8.81545 1.2988e-07 9.90279C0.000273629 10.9901 0.432482 12.0328 1.20154 12.8015C1.9706 13.5702 3.01352 14.0019 4.10087 14.0016C5.18821 14.0013 6.23091 13.5691 6.99958 12.8L8.90242 10.8972C9.00868 10.7872 9.06747 10.6398 9.06614 10.4869C9.06482 10.3339 9.00347 10.1876 8.89531 10.0795C8.78716 9.97133 8.64085 9.90998 8.4879 9.90866C8.33495 9.90733 8.1876 9.96612 8.07758 10.0724H8.07584Z" fill="#8383B0"/>
<path d="M12.8011 1.2022C12.4215 0.820012 11.9699 0.516949 11.4723 0.310576C10.9747 0.104203 10.4412 -0.0013773 9.90252 -4.66614e-05C9.36414 -0.00147684 8.83082 0.103832 8.3334 0.309792C7.83597 0.515751 7.38431 0.818274 7.00452 1.19987L5.09877 3.10329C4.98931 3.21267 4.92779 3.36105 4.92773 3.51579C4.92768 3.67053 4.9891 3.81895 5.09848 3.92841C5.20786 4.03787 5.35624 4.09939 5.51098 4.09945C5.66572 4.0995 5.81415 4.03808 5.9236 3.9287L7.82819 2.02587C8.09976 1.75267 8.42283 1.53605 8.77869 1.38855C9.13455 1.24106 9.51614 1.16563 9.90135 1.16662C10.4813 1.16681 11.0482 1.33895 11.5304 1.66129C12.0126 1.98362 12.3884 2.44167 12.6103 2.97753C12.8321 3.5134 12.8902 4.10302 12.777 4.67186C12.6639 5.2407 12.3846 5.76322 11.9745 6.17337L10.0717 8.0762C9.96223 8.18566 9.90074 8.33412 9.90074 8.48891C9.90074 8.64371 9.96223 8.79216 10.0717 8.90162C10.1811 9.01108 10.3296 9.07257 10.4844 9.07257C10.6392 9.07257 10.7876 9.01108 10.8971 8.90162L12.7999 6.99995C13.5676 6.23059 13.9989 5.18818 13.9991 4.10132C13.9993 3.01446 13.5685 1.97187 12.8011 1.2022Z" fill="#8383B0"/>
<path d="M8.33824 4.83758L4.83824 8.33758C4.78253 8.39139 4.73809 8.45576 4.70751 8.52692C4.67694 8.59809 4.66085 8.67464 4.66018 8.75209C4.65951 8.82955 4.67426 8.90636 4.7036 8.97805C4.73293 9.04974 4.77624 9.11487 4.83101 9.16964C4.88578 9.22441 4.95091 9.26773 5.0226 9.29706C5.09429 9.32639 5.1711 9.34115 5.24856 9.34047C5.32601 9.3398 5.40256 9.32371 5.47373 9.29314C5.5449 9.26256 5.60926 9.21812 5.66307 9.16241L9.16307 5.66241C9.26933 5.55239 9.32813 5.40504 9.3268 5.25209C9.32547 5.09914 9.26412 4.95284 9.15597 4.84468C9.04781 4.73653 8.90151 4.67518 8.74856 4.67385C8.59561 4.67252 8.44826 4.73132 8.33824 4.83758Z" fill="#8383B0"/>
</g>
<defs>
<clipPath id="clip0">
<rect width="14" height="14" fill="white"/>
</clipPath>
</defs>
</svg>
