<svg width="80" height="80" viewBox="0 0 80 80" fill="none" xmlns="http://www.w3.org/2000/svg">
<circle cx="40" cy="40" r="40" fill="#F5F0FF"/>
<path d="M47 32H46.492L44.308 29.168C44.0265 28.8058 43.6663 28.5124 43.2547 28.3101C42.843 28.1077 42.3907 28.0017 41.932 28H38.068C37.6093 28.0017 37.157 28.1077 36.7453 28.3101C36.3337 28.5124 35.9735 28.8058 35.692 29.168L33.508 32H33C31.6744 32.0016 30.4036 32.5289 29.4662 33.4662C28.5289 34.4036 28.0016 35.6744 28 37V47C28.0016 48.3256 28.5289 49.5964 29.4662 50.5338C30.4036 51.4711 31.6744 51.9984 33 52H47C48.3256 51.9984 49.5964 51.4711 50.5338 50.5338C51.4711 49.5964 51.9984 48.3256 52 47V37C51.9984 35.6744 51.4711 34.4036 50.5338 33.4662C49.5964 32.5289 48.3256 32.0016 47 32ZM37.276 30.39C37.3697 30.2691 37.4897 30.1711 37.6269 30.1035C37.7642 30.0359 37.915 30.0005 38.068 30H41.932C42.085 30.0007 42.2357 30.0361 42.373 30.1037C42.5102 30.1713 42.6302 30.2692 42.724 30.39L43.966 32H36.034L37.276 30.39ZM50 47C50 47.7956 49.6839 48.5587 49.1213 49.1213C48.5587 49.6839 47.7956 50 47 50H33C32.2044 50 31.4413 49.6839 30.8787 49.1213C30.3161 48.5587 30 47.7956 30 47V37C30 36.2044 30.3161 35.4413 30.8787 34.8787C31.4413 34.3161 32.2044 34 33 34H47C47.7956 34 48.5587 34.3161 49.1213 34.8787C49.6839 35.4413 50 36.2044 50 37V47Z" fill="#8383B0"/>
<path d="M40 36C38.8133 36 37.6533 36.3519 36.6666 37.0112C35.6799 37.6705 34.9109 38.6075 34.4567 39.7039C34.0026 40.8003 33.8838 42.0067 34.1153 43.1705C34.3468 44.3344 34.9182 45.4035 35.7574 46.2426C36.5965 47.0818 37.6656 47.6532 38.8295 47.8847C39.9933 48.1162 41.1997 47.9974 42.2961 47.5433C43.3925 47.0892 44.3295 46.3201 44.9888 45.3334C45.6481 44.3467 46 43.1867 46 42C45.9984 40.4092 45.3658 38.884 44.2409 37.7591C43.116 36.6342 41.5908 36.0016 40 36ZM40 46C39.2089 46 38.4355 45.7654 37.7777 45.3259C37.1199 44.8864 36.6072 44.2616 36.3045 43.5307C36.0017 42.7998 35.9225 41.9956 36.0769 41.2196C36.2312 40.4437 36.6122 39.731 37.1716 39.1716C37.731 38.6122 38.4437 38.2312 39.2196 38.0769C39.9956 37.9225 40.7998 38.0017 41.5307 38.3045C42.2616 38.6072 42.8864 39.1199 43.3259 39.7777C43.7654 40.4355 44 41.2089 44 42C44 43.0609 43.5786 44.0783 42.8284 44.8284C42.0783 45.5786 41.0609 46 40 46Z" fill="#8383B0"/>
</svg>
