<svg width="20" height="20" viewBox="0 0 20 20" fill="none" xmlns="http://www.w3.org/2000/svg">
<g clip-path="url(#clip0)">
<path d="M15.8333 0.833374H4.16667C3.062 0.834697 2.00296 1.27411 1.22185 2.05522C0.440735 2.83634 0.00132321 3.89538 0 5.00004L0 15C0.00132321 16.1047 0.440735 17.1637 1.22185 17.9449C2.00296 18.726 3.062 19.1654 4.16667 19.1667H15.8333C16.938 19.1654 17.997 18.726 18.7782 17.9449C19.5593 17.1637 19.9987 16.1047 20 15V5.00004C19.9987 3.89538 19.5593 2.83634 18.7782 2.05522C17.997 1.27411 16.938 0.834697 15.8333 0.833374ZM4.16667 2.50004H15.8333C16.3323 2.50102 16.8196 2.6513 17.2325 2.93154C17.6453 3.21179 17.9649 3.60916 18.15 4.07254L11.7683 10.455C11.2987 10.9228 10.6628 11.1854 10 11.1854C9.33715 11.1854 8.70131 10.9228 8.23167 10.455L1.85 4.07254C2.03512 3.60916 2.35468 3.21179 2.76754 2.93154C3.1804 2.6513 3.66768 2.50102 4.16667 2.50004ZM15.8333 17.5H4.16667C3.50363 17.5 2.86774 17.2367 2.3989 16.7678C1.93006 16.299 1.66667 15.6631 1.66667 15V6.25004L7.05333 11.6334C7.83552 12.4136 8.89521 12.8517 10 12.8517C11.1048 12.8517 12.1645 12.4136 12.9467 11.6334L18.3333 6.25004V15C18.3333 15.6631 18.0699 16.299 17.6011 16.7678C17.1323 17.2367 16.4964 17.5 15.8333 17.5Z" fill="#8383B0"/>
</g>
<defs>
<clipPath id="clip0">
<rect width="20" height="20" fill="white"/>
</clipPath>
</defs>
</svg>
