<svg width="14" height="14" viewBox="0 0 14 14" fill="none" xmlns="http://www.w3.org/2000/svg">
<g clip-path="url(#clip0)">
<path d="M11.0833 0.583313H2.91667C2.1434 0.584239 1.40208 0.891827 0.855295 1.43861C0.308514 1.98539 0.00092625 2.72672 0 3.49998L0 10.5C0.00092625 11.2732 0.308514 12.0146 0.855295 12.5613C1.40208 13.1081 2.1434 13.4157 2.91667 13.4166H11.0833C11.8566 13.4157 12.5979 13.1081 13.1447 12.5613C13.6915 12.0146 13.9991 11.2732 14 10.5V3.49998C13.9991 2.72672 13.6915 1.98539 13.1447 1.43861C12.5979 0.891827 11.8566 0.584239 11.0833 0.583313ZM2.91667 1.74998H11.0833C11.4326 1.75067 11.7737 1.85586 12.0627 2.05203C12.3517 2.2482 12.5754 2.52637 12.705 2.85073L8.23783 7.31848C7.90908 7.64591 7.46399 7.82975 7 7.82975C6.53601 7.82975 6.09092 7.64591 5.76217 7.31848L1.295 2.85073C1.42459 2.52637 1.64827 2.2482 1.93728 2.05203C2.22628 1.85586 2.56738 1.75067 2.91667 1.74998ZM11.0833 12.25H2.91667C2.45254 12.25 2.00742 12.0656 1.67923 11.7374C1.35104 11.4092 1.16667 10.9641 1.16667 10.5V4.37498L4.93733 8.14331C5.48487 8.68946 6.22665 8.99617 7 8.99617C7.77335 8.99617 8.51513 8.68946 9.06267 8.14331L12.8333 4.37498V10.5C12.8333 10.9641 12.649 11.4092 12.3208 11.7374C11.9926 12.0656 11.5475 12.25 11.0833 12.25Z" fill="#26BEFF"/>
</g>
<defs>
<clipPath id="clip0">
<rect width="14" height="14" fill="white"/>
</clipPath>
</defs>
</svg>
