<svg width="20" height="20" viewBox="0 0 20 20" fill="none" xmlns="http://www.w3.org/2000/svg">
<g clip-path="url(#clip0)">
<path d="M16.6248 4.61335L13.7198 1.70835C13.1795 1.16509 12.5368 0.734374 11.8288 0.44114C11.1209 0.147906 10.3619 -0.00202547 9.59567 2.06635e-05H5.83317C4.72851 0.00134388 3.66947 0.440756 2.88835 1.22187C2.10724 2.00299 1.66783 3.06203 1.6665 4.16669V15.8334C1.66783 16.938 2.10724 17.9971 2.88835 18.7782C3.66947 19.5593 4.72851 19.9987 5.83317 20H14.1665C15.2712 19.9987 16.3302 19.5593 17.1113 18.7782C17.8924 17.9971 18.3318 16.938 18.3332 15.8334V8.73752C18.3352 7.97129 18.1853 7.21225 17.8921 6.50434C17.5988 5.79643 17.1681 5.15371 16.6248 4.61335ZM15.4465 5.79169C15.7007 6.0537 15.9195 6.34786 16.0973 6.66669H12.4998C12.2788 6.66669 12.0669 6.57889 11.9106 6.42261C11.7543 6.26633 11.6665 6.05437 11.6665 5.83335V2.23585C11.9853 2.41367 12.2795 2.63248 12.5415 2.88669L15.4465 5.79169ZM16.6665 15.8334C16.6665 16.4964 16.4031 17.1323 15.9343 17.6011C15.4654 18.07 14.8295 18.3334 14.1665 18.3334H5.83317C5.17013 18.3334 4.53424 18.07 4.0654 17.6011C3.59656 17.1323 3.33317 16.4964 3.33317 15.8334V4.16669C3.33317 3.50365 3.59656 2.86776 4.0654 2.39892C4.53424 1.93008 5.17013 1.66669 5.83317 1.66669H9.59567C9.73317 1.66669 9.86484 1.69335 9.99984 1.70585V5.83335C9.99984 6.4964 10.2632 7.13228 10.7321 7.60112C11.2009 8.06996 11.8368 8.33335 12.4998 8.33335H16.6273C16.6398 8.46836 16.6665 8.60002 16.6665 8.73752V15.8334ZM13.9365 11.0925C14.0887 11.2526 14.1711 11.4665 14.1656 11.6873C14.1601 11.9081 14.0672 12.1177 13.9073 12.27L10.9165 15.115C10.4464 15.5778 9.8124 15.8359 9.15275 15.8333C8.4931 15.8306 7.86123 15.5674 7.39484 15.1009L6.1115 13.9559C5.94641 13.8087 5.84654 13.6019 5.83389 13.3811C5.82762 13.2717 5.84295 13.1622 5.879 13.0588C5.91505 12.9554 5.97112 12.8601 6.044 12.7784C6.11689 12.6966 6.20516 12.63 6.30378 12.5824C6.4024 12.5347 6.50943 12.507 6.61877 12.5007C6.8396 12.4881 7.05641 12.5637 7.2215 12.7109L8.54234 13.8892C8.61795 13.9741 8.71014 14.0426 8.81323 14.0906C8.91633 14.1385 9.02814 14.1649 9.1418 14.168C9.25546 14.1711 9.36855 14.151 9.47412 14.1088C9.57969 14.0665 9.67551 14.0032 9.75567 13.9225L12.7557 11.0634C12.835 10.9875 12.9285 10.9281 13.0309 10.8885C13.1333 10.8489 13.2424 10.8299 13.3521 10.8326C13.4619 10.8353 13.57 10.8597 13.6703 10.9043C13.7705 10.9489 13.861 11.0128 13.9365 11.0925Z" fill="white"/>
</g>
<defs>
<clipPath id="clip0">
<rect width="20" height="20" fill="white"/>
</clipPath>
</defs>
</svg>
