<svg width="40" height="40" viewBox="0 0 40 40" fill="none" xmlns="http://www.w3.org/2000/svg">
<g clip-path="url(#clip0)">
<path d="M21.333 28C21.1887 28 21.0484 27.9532 20.933 27.8667L18.2663 25.8667C18.1835 25.8046 18.1163 25.724 18.07 25.6315C18.0238 25.5389 17.9997 25.4368 17.9997 25.3333V21.5867L13.3223 16.3247C12.9901 15.9499 12.7732 15.4872 12.6977 14.9922C12.6222 14.4971 12.6912 13.9908 12.8965 13.534C13.1019 13.0773 13.4347 12.6895 13.8551 12.4174C14.2755 12.1452 14.7655 12.0003 15.2663 12H24.733C25.2337 12.0006 25.7237 12.1458 26.1439 12.4181C26.5641 12.6904 26.8967 13.0782 27.1018 13.5351C27.3069 13.9919 27.3758 14.4982 27.3 14.9932C27.2243 15.4881 27.0073 15.9507 26.675 16.3253L21.9997 21.5867V27.3333C21.9997 27.5101 21.9294 27.6797 21.8044 27.8047C21.6794 27.9298 21.5098 28 21.333 28ZM19.333 25L20.6663 26V21.3333C20.6665 21.1701 20.7265 21.0126 20.835 20.8907L25.6803 15.4393C25.8419 15.2567 25.9473 15.0314 25.984 14.7903C26.0206 14.5492 25.9869 14.3027 25.8868 14.0804C25.7868 13.858 25.6247 13.6692 25.4201 13.5367C25.2154 13.4042 24.9768 13.3336 24.733 13.3333H15.2663C15.0226 13.3337 14.7842 13.4044 14.5797 13.5368C14.3751 13.6693 14.2131 13.858 14.1131 14.0802C14.0131 14.3025 13.9794 14.5488 14.0159 14.7898C14.0524 15.0307 14.1576 15.256 14.319 15.4387L19.165 20.8907C19.2733 21.0127 19.333 21.1702 19.333 21.3333V25Z" fill="#8383B0"/>
</g>
<rect opacity="0.1" x="0.5" y="0.5" width="39" height="39" rx="9.5" stroke="#1D1D3E"/>
<defs>
<clipPath id="clip0">
<rect width="16" height="16" fill="white" transform="translate(12 12)"/>
</clipPath>
</defs>
</svg>
