<svg width="20" height="20" viewBox="0 0 20 20" fill="none" xmlns="http://www.w3.org/2000/svg">
<g clip-path="url(#clip0)">
<path d="M5.83333 0H3.33333C2.44928 0 1.60143 0.35119 0.976311 0.976311C0.35119 1.60143 0 2.44928 0 3.33333L0 5.83333C0 6.71739 0.35119 7.56524 0.976311 8.19036C1.60143 8.81548 2.44928 9.16667 3.33333 9.16667H5.83333C6.71739 9.16667 7.56524 8.81548 8.19036 8.19036C8.81548 7.56524 9.16667 6.71739 9.16667 5.83333V3.33333C9.16667 2.44928 8.81548 1.60143 8.19036 0.976311C7.56524 0.35119 6.71739 0 5.83333 0V0ZM7.5 5.83333C7.5 6.27536 7.32441 6.69928 7.01184 7.01184C6.69928 7.32441 6.27536 7.5 5.83333 7.5H3.33333C2.89131 7.5 2.46738 7.32441 2.15482 7.01184C1.84226 6.69928 1.66667 6.27536 1.66667 5.83333V3.33333C1.66667 2.89131 1.84226 2.46738 2.15482 2.15482C2.46738 1.84226 2.89131 1.66667 3.33333 1.66667H5.83333C6.27536 1.66667 6.69928 1.84226 7.01184 2.15482C7.32441 2.46738 7.5 2.89131 7.5 3.33333V5.83333Z" fill="#8383B0"/>
<path d="M5.83333 10.8333H3.33333C2.44928 10.8333 1.60143 11.1845 0.976311 11.8096C0.35119 12.4347 0 13.2826 0 14.1667L0 16.6667C0 17.5507 0.35119 18.3986 0.976311 19.0237C1.60143 19.6488 2.44928 20 3.33333 20H5.83333C6.71739 20 7.56524 19.6488 8.19036 19.0237C8.81548 18.3986 9.16667 17.5507 9.16667 16.6667V14.1667C9.16667 13.2826 8.81548 12.4347 8.19036 11.8096C7.56524 11.1845 6.71739 10.8333 5.83333 10.8333ZM7.5 16.6667C7.5 17.1087 7.32441 17.5326 7.01184 17.8452C6.69928 18.1577 6.27536 18.3333 5.83333 18.3333H3.33333C2.89131 18.3333 2.46738 18.1577 2.15482 17.8452C1.84226 17.5326 1.66667 17.1087 1.66667 16.6667V14.1667C1.66667 13.7246 1.84226 13.3007 2.15482 12.9881C2.46738 12.6756 2.89131 12.5 3.33333 12.5H5.83333C6.27536 12.5 6.69928 12.6756 7.01184 12.9881C7.32441 13.3007 7.5 13.7246 7.5 14.1667V16.6667Z" fill="#8383B0"/>
<path d="M18.5775 15.8742L16.6667 17.7825V2.1942L18.5775 4.10253C18.6549 4.1799 18.7468 4.24127 18.848 4.28312C18.9491 4.32497 19.0575 4.34649 19.167 4.34645C19.2764 4.34641 19.3848 4.32482 19.4859 4.28289C19.587 4.24097 19.6789 4.17954 19.7562 4.10212C19.8336 4.02469 19.895 3.93279 19.9368 3.83165C19.9787 3.73051 20.0002 3.62211 20.0002 3.51266C20.0001 3.4032 19.9785 3.29482 19.9366 3.19371C19.8947 3.0926 19.8333 3.00074 19.7558 2.92337L17.6 0.770867C17.1312 0.302699 16.4958 0.0397339 15.8333 0.0397339C15.1708 0.0397339 14.5354 0.302699 14.0667 0.770867L11.9108 2.92337C11.8334 3.00074 11.772 3.0926 11.7301 3.19371C11.6881 3.29482 11.6665 3.4032 11.6665 3.51266C11.6665 3.62211 11.688 3.73051 11.7298 3.83165C11.7717 3.93279 11.8331 4.02469 11.9104 4.10212C11.9878 4.17954 12.0797 4.24097 12.1808 4.28289C12.2819 4.32482 12.3903 4.34641 12.4997 4.34645C12.6092 4.34649 12.7176 4.32497 12.8187 4.28312C12.9198 4.24127 13.0117 4.1799 13.0892 4.10253L15 2.1942V17.7825L13.0892 15.8742C13.0117 15.7968 12.9198 15.7355 12.8187 15.6936C12.7176 15.6518 12.6092 15.6302 12.4997 15.6303C12.3903 15.6303 12.2819 15.6519 12.1808 15.6938C12.0797 15.7358 11.9878 15.7972 11.9104 15.8746C11.8331 15.952 11.7717 16.0439 11.7298 16.1451C11.688 16.2462 11.6665 16.3546 11.6665 16.4641C11.6665 16.5735 11.6881 16.6819 11.7301 16.783C11.772 16.8841 11.8334 16.976 11.9108 17.0534L14.0667 19.2059C14.5354 19.674 15.1708 19.937 15.8333 19.937C16.4958 19.937 17.1312 19.674 17.6 19.2059L19.7558 17.0534C19.8333 16.976 19.8947 16.8841 19.9366 16.783C19.9785 16.6819 20.0001 16.5735 20.0002 16.4641C20.0002 16.3546 19.9787 16.2462 19.9368 16.1451C19.895 16.0439 19.8336 15.952 19.7562 15.8746C19.6789 15.7972 19.587 15.7358 19.4859 15.6938C19.3848 15.6519 19.2764 15.6303 19.167 15.6303C19.0575 15.6302 18.9491 15.6518 18.848 15.6936C18.7468 15.7355 18.6549 15.7968 18.5775 15.8742Z" fill="#8383B0"/>
</g>
<defs>
<clipPath id="clip0">
<rect width="20" height="20" fill="white"/>
</clipPath>
</defs>
</svg>
