<svg width="16" height="16" viewBox="0 0 16 16" fill="none" xmlns="http://www.w3.org/2000/svg">
<g clip-path="url(#clip0)">
<path d="M0.58686 9.39333L3.16686 12C3.22884 12.0625 3.30257 12.1121 3.38381 12.1459C3.46505 12.1798 3.55219 12.1972 3.64019 12.1972C3.7282 12.1972 3.81534 12.1798 3.89658 12.1459C3.97782 12.1121 4.05155 12.0625 4.11353 12C4.17601 11.938 4.22561 11.8643 4.25945 11.783C4.2933 11.7018 4.31073 11.6147 4.31073 11.5267C4.31073 11.4387 4.2933 11.3515 4.25945 11.2703C4.22561 11.189 4.17601 11.1153 4.11353 11.0533L1.74019 8.66666H15.3335C15.5103 8.66666 15.6799 8.59642 15.8049 8.4714C15.93 8.34638 16.0002 8.17681 16.0002 8C16.0002 7.82318 15.93 7.65362 15.8049 7.52859C15.6799 7.40357 15.5103 7.33333 15.3335 7.33333H1.70019L4.11353 4.91999C4.23172 4.79601 4.29765 4.63129 4.29765 4.45999C4.29765 4.2887 4.23172 4.12398 4.11353 3.99999C4.05155 3.93751 3.97782 3.88791 3.89658 3.85407C3.81534 3.82022 3.7282 3.8028 3.64019 3.8028C3.55219 3.8028 3.46505 3.82022 3.38381 3.85407C3.30257 3.88791 3.22884 3.93751 3.16686 3.99999L0.58686 6.56666C0.212325 6.94166 0.00195313 7.44999 0.00195312 7.98C0.00195312 8.51 0.212325 9.01833 0.58686 9.39333Z" fill="#8383B0"/>
</g>
<defs>
<clipPath id="clip0">
<rect width="16" height="16" fill="white"/>
</clipPath>
</defs>
</svg>
