<svg width="118" height="35" viewBox="0 0 118 35" fill="none" xmlns="http://www.w3.org/2000/svg">
<path d="M47.68 20.104C46.72 21.448 45.184 22.336 43.384 22.336C40.384 22.336 38.128 19.864 38.128 16.768C38.128 13.696 40.384 11.176 43.384 11.176C45.136 11.176 46.624 12.04 47.584 13.288L50.032 11.536C48.592 9.52 46.192 8.272 43.384 8.272C38.68 8.272 35.056 12.088 35.056 16.768C35.056 21.424 38.68 25.24 43.384 25.24C46.264 25.24 48.664 23.92 50.104 21.88L47.68 20.104ZM59.6646 19.768C59.6646 21.712 58.4646 22.384 57.2406 22.384C56.2086 22.384 55.1046 21.712 55.1046 19.888V13.792H52.1526V20.416C52.1526 23.584 53.9046 25.24 56.5686 25.24C57.6966 25.24 59.0406 24.616 59.6646 23.416V25H62.5926V13.792H59.6646V19.768ZM70.1618 20.704C71.0018 20.896 71.4098 21.184 71.3858 21.76C71.3858 22.408 70.7618 22.864 69.9218 22.888C68.8418 22.96 67.9298 22.264 67.8578 21.472H65.1218C65.1938 23.872 67.4258 25.24 69.6338 25.24C71.9618 25.24 74.2178 24.088 74.2178 21.784C74.2178 20.872 73.8818 19.144 71.2898 18.424L69.4178 17.968C68.7698 17.8 68.2418 17.488 68.2418 17.032C68.2418 16.192 68.9138 15.928 69.6578 15.928C70.3298 15.928 71.0978 16.24 71.1698 17.08H73.9538C73.8338 14.512 71.7218 13.552 69.5858 13.552C67.3778 13.552 65.4578 15.064 65.4578 16.888C65.4578 18.184 65.7218 19.552 68.6258 20.32L70.1618 20.704ZM80.6523 9.52H77.7483V13.792H75.7083V16.144H77.7483V25H80.6523V16.144H83.0283V13.792H80.6523V9.52ZM90.2217 22.36C88.5897 22.36 87.2937 21.184 87.2937 19.36C87.2937 17.56 88.5897 16.432 90.2217 16.432C91.8537 16.432 93.1497 17.56 93.1497 19.36C93.1497 21.184 91.8537 22.36 90.2217 22.36ZM90.2217 25.216C93.3897 25.216 96.0537 22.888 96.0537 19.36C96.0537 15.808 93.3897 13.552 90.2217 13.552C87.0537 13.552 84.3897 15.808 84.3897 19.36C84.3897 22.888 87.0537 25.216 90.2217 25.216ZM111.231 16.408C112.455 16.408 113.343 17.272 113.343 18.904V25H116.247V18.592C116.247 15.304 114.639 13.552 111.927 13.552C111.063 13.552 109.431 13.792 108.399 15.664C107.751 14.296 106.623 13.672 104.823 13.576C103.743 13.576 102.255 14.08 101.607 15.448V13.792H98.6794V25H101.607V19.024C101.607 17.104 102.759 16.408 103.959 16.408C105.111 16.408 105.999 17.272 106.023 18.832V25H108.951V19.024C108.951 17.296 109.887 16.408 111.231 16.408Z" fill="#2D1078"/>
<path d="M0.0306396 4.28784L11.644 10.8358V34.9744L0.0306396 28.4278" fill="#7947F7"/>
<path d="M17.3934 7.10949L4.77002 0.0159302V4.94195L13.3541 9.77796V24.5601L17.394 26.8236C19.8941 28.2304 21.9408 27.3876 21.9408 24.9499V14.1031C21.9408 11.6642 19.8941 8.51703 17.3941 7.10949" fill="#FF8E8E"/>
</svg>
