<svg width="14" height="14" viewBox="0 0 14 14" fill="none" xmlns="http://www.w3.org/2000/svg">
<g clip-path="url(#clip0)">
<path d="M13.4173 6.41669H12.2506V5.25002C12.2506 5.09531 12.1892 4.94694 12.0798 4.83754C11.9704 4.72815 11.822 4.66669 11.6673 4.66669C11.5126 4.66669 11.3642 4.72815 11.2548 4.83754C11.1454 4.94694 11.084 5.09531 11.084 5.25002V6.41669H9.91732C9.76261 6.41669 9.61423 6.47815 9.50484 6.58754C9.39544 6.69694 9.33398 6.84531 9.33398 7.00002C9.33398 7.15473 9.39544 7.3031 9.50484 7.4125C9.61423 7.5219 9.76261 7.58336 9.91732 7.58336H11.084V8.75002C11.084 8.90473 11.1454 9.05311 11.2548 9.1625C11.3642 9.2719 11.5126 9.33336 11.6673 9.33336C11.822 9.33336 11.9704 9.2719 12.0798 9.1625C12.1892 9.05311 12.2506 8.90473 12.2506 8.75002V7.58336H13.4173C13.572 7.58336 13.7204 7.5219 13.8298 7.4125C13.9392 7.3031 14.0006 7.15473 14.0006 7.00002C14.0006 6.84531 13.9392 6.69694 13.8298 6.58754C13.7204 6.47815 13.572 6.41669 13.4173 6.41669Z" fill="#8383B0"/>
<path d="M5.25 7C5.94223 7 6.61892 6.79473 7.1945 6.41015C7.77007 6.02556 8.21867 5.47894 8.48358 4.83939C8.74849 4.19985 8.8178 3.49612 8.68275 2.81719C8.5477 2.13825 8.21436 1.51461 7.72487 1.02513C7.23539 0.535644 6.61175 0.202301 5.93282 0.0672531C5.25388 -0.0677952 4.55015 0.0015165 3.91061 0.266423C3.27107 0.53133 2.72444 0.979934 2.33986 1.55551C1.95527 2.13108 1.75 2.80777 1.75 3.5C1.75093 4.42798 2.11997 5.31768 2.77615 5.97385C3.43233 6.63003 4.32203 6.99908 5.25 7ZM5.25 1.16667C5.71149 1.16667 6.16262 1.30352 6.54633 1.55991C6.93005 1.8163 7.22912 2.18071 7.40572 2.60707C7.58232 3.03343 7.62853 3.50259 7.5385 3.95521C7.44847 4.40784 7.22624 4.8236 6.89992 5.14992C6.57359 5.47624 6.15783 5.69847 5.70521 5.7885C5.25259 5.87853 4.78343 5.83233 4.35707 5.65572C3.93071 5.47912 3.56629 5.18005 3.3099 4.79633C3.05351 4.41262 2.91667 3.96149 2.91667 3.5C2.91667 2.88116 3.1625 2.28767 3.60008 1.85009C4.03767 1.4125 4.63116 1.16667 5.25 1.16667Z" fill="#8383B0"/>
<path d="M5.25 8.16669C3.85809 8.16823 2.52363 8.72185 1.53939 9.70608C0.555163 10.6903 0.001544 12.0248 0 13.4167C0 13.5714 0.0614582 13.7198 0.170854 13.8292C0.280251 13.9386 0.428624 14 0.583333 14C0.738043 14 0.886416 13.9386 0.995812 13.8292C1.10521 13.7198 1.16667 13.5714 1.16667 13.4167C1.16667 12.3337 1.59687 11.2951 2.36265 10.5293C3.12842 9.76356 4.16703 9.33335 5.25 9.33335C6.33297 9.33335 7.37158 9.76356 8.13735 10.5293C8.90313 11.2951 9.33333 12.3337 9.33333 13.4167C9.33333 13.5714 9.39479 13.7198 9.50419 13.8292C9.61358 13.9386 9.76196 14 9.91667 14C10.0714 14 10.2197 13.9386 10.3291 13.8292C10.4385 13.7198 10.5 13.5714 10.5 13.4167C10.4985 12.0248 9.94484 10.6903 8.9606 9.70608C7.97637 8.72185 6.64191 8.16823 5.25 8.16669Z" fill="#8383B0"/>
</g>
<defs>
<clipPath id="clip0">
<rect width="14" height="14" fill="white"/>
</clipPath>
</defs>
</svg>
