<svg width="16" height="16" viewBox="0 0 16 16" fill="none" xmlns="http://www.w3.org/2000/svg">
<g clip-path="url(#clip0)">
<path d="M7.99984 13.3333C9.41384 13.3317 10.7695 12.7693 11.7693 11.7695C12.7692 10.7696 13.3316 9.414 13.3332 8V5.33333C13.3332 3.91884 12.7713 2.56229 11.7711 1.56209C10.7709 0.561899 9.41433 -3.8147e-06 7.99984 -3.8147e-06C6.58535 -3.8147e-06 5.2288 0.561899 4.2286 1.56209C3.22841 2.56229 2.6665 3.91884 2.6665 5.33333V8C2.66809 9.414 3.23051 10.7696 4.23036 11.7695C5.23021 12.7693 6.58584 13.3317 7.99984 13.3333ZM7.99984 1.33333C8.94421 1.33508 9.85756 1.67057 10.5785 2.28053C11.2995 2.89048 11.7817 3.73564 11.9398 4.66666H9.99984C9.82303 4.66666 9.65346 4.7369 9.52843 4.86192C9.40341 4.98695 9.33317 5.15652 9.33317 5.33333C9.33317 5.51014 9.40341 5.67971 9.52843 5.80473C9.65346 5.92976 9.82303 6 9.99984 6H11.9998V7.33333H9.99984C9.82303 7.33333 9.65346 7.40357 9.52843 7.52859C9.40341 7.65362 9.33317 7.82318 9.33317 8C9.33317 8.17681 9.40341 8.34638 9.52843 8.4714C9.65346 8.59642 9.82303 8.66666 9.99984 8.66666H11.9398C11.7831 9.59832 11.3014 10.4443 10.5801 11.0544C9.85876 11.6646 8.94458 11.9994 7.99984 11.9994C7.05509 11.9994 6.14091 11.6646 5.4196 11.0544C4.69829 10.4443 4.21653 9.59832 4.05984 8.66666H5.99984C6.17665 8.66666 6.34622 8.59642 6.47124 8.4714C6.59627 8.34638 6.6665 8.17681 6.6665 8C6.6665 7.82318 6.59627 7.65362 6.47124 7.52859C6.34622 7.40357 6.17665 7.33333 5.99984 7.33333H3.99984V6H5.99984C6.17665 6 6.34622 5.92976 6.47124 5.80473C6.59627 5.67971 6.6665 5.51014 6.6665 5.33333C6.6665 5.15652 6.59627 4.98695 6.47124 4.86192C6.34622 4.7369 6.17665 4.66666 5.99984 4.66666H4.05984C4.21802 3.73564 4.70019 2.89048 5.42115 2.28053C6.14212 1.67057 7.05547 1.33508 7.99984 1.33333Z" fill="#A5A5C4"/>
<path d="M15.3333 8C15.1565 8 14.987 8.07024 14.8619 8.19526C14.7369 8.32029 14.6667 8.48986 14.6667 8.66667C14.6649 10.2574 14.0322 11.7825 12.9074 12.9074C11.7825 14.0322 10.2574 14.6649 8.66667 14.6667H7.33333C5.74263 14.6647 4.21763 14.032 3.09284 12.9072C1.96804 11.7824 1.33527 10.2574 1.33333 8.66667C1.33333 8.48986 1.2631 8.32029 1.13807 8.19526C1.01305 8.07024 0.843478 8 0.666667 8C0.489856 8 0.320286 8.07024 0.195262 8.19526C0.0702379 8.32029 0 8.48986 0 8.66667C0.00229365 10.6109 0.775647 12.4748 2.15042 13.8496C3.52519 15.2244 5.38912 15.9977 7.33333 16H8.66667C10.6109 15.9977 12.4748 15.2244 13.8496 13.8496C15.2244 12.4748 15.9977 10.6109 16 8.66667C16 8.48986 15.9298 8.32029 15.8047 8.19526C15.6797 8.07024 15.5101 8 15.3333 8Z" fill="#A5A5C4"/>
</g>
<defs>
<clipPath id="clip0">
<rect width="16" height="16" fill="white"/>
</clipPath>
</defs>
</svg>
