<svg width="16" height="16" viewBox="0 0 16 16" fill="none" xmlns="http://www.w3.org/2000/svg">
<g clip-path="url(#clip0)">
<path d="M11.3332 16H4.66983C4.2843 15.9998 3.90338 15.9163 3.55312 15.7552C3.20287 15.5941 2.89155 15.3592 2.64049 15.0667C2.39297 14.7805 2.21019 14.4442 2.10468 14.0808C1.99917 13.7175 1.97341 13.3356 2.02916 12.9613C2.3871 11.0117 3.42714 9.25298 4.96316 8C3.42711 6.74657 2.3873 4.98739 2.02983 3.03733C1.97418 2.66334 1.99994 2.28175 2.10533 1.91863C2.21072 1.55551 2.39327 1.21942 2.64049 0.933333C2.89155 0.640764 3.20287 0.405896 3.55312 0.244806C3.90338 0.0837168 4.2843 0.000209228 4.66983 0L11.3332 0C11.7187 0.000341429 12.0995 0.0839081 12.4498 0.244989C12.8 0.406069 13.1113 0.640866 13.3625 0.933333C13.6097 1.2193 13.7924 1.55523 13.898 1.91821C14.0036 2.2812 14.0297 2.66269 13.9745 3.03667C13.6134 4.9873 12.5712 6.74628 11.0338 8C12.5703 9.2548 13.6113 11.0145 13.9712 12.9653C14.0264 13.3394 14.0004 13.721 13.8948 14.0841C13.7892 14.4472 13.6065 14.7833 13.3592 15.0693C13.1081 15.3609 12.7972 15.5949 12.4476 15.7555C12.098 15.9161 11.7179 15.9995 11.3332 16ZM11.3332 1.33333H4.66983C4.47645 1.33321 4.28532 1.37485 4.10951 1.45539C3.93371 1.53593 3.77736 1.65348 3.65116 1.8C3.52793 1.94029 3.43686 2.10583 3.38435 2.28502C3.33184 2.46421 3.31914 2.65272 3.34716 2.83733C3.59783 4.504 4.62983 6.064 6.41383 7.47533C6.49265 7.53775 6.55634 7.61719 6.60013 7.7077C6.64391 7.79821 6.66665 7.89745 6.66665 7.998C6.66665 8.09855 6.64391 8.19779 6.60013 8.2883C6.55634 8.37881 6.49265 8.45825 6.41383 8.52067C4.62983 9.93333 3.59983 11.4947 3.34716 13.1607C3.31884 13.3456 3.33138 13.5345 3.3839 13.714C3.43642 13.8936 3.52765 14.0595 3.65116 14.2C3.77736 14.3465 3.93371 14.4641 4.10951 14.5446C4.28532 14.6252 4.47645 14.6668 4.66983 14.6667H11.3332C11.5265 14.6668 11.7177 14.6252 11.8935 14.5447C12.0693 14.4641 12.2257 14.3466 12.3518 14.2C12.475 14.06 12.5661 13.8947 12.6186 13.7157C12.6711 13.5367 12.6838 13.3484 12.6558 13.164C12.4072 11.506 11.3758 9.94467 9.58916 8.52267C9.51082 8.46022 9.44755 8.38093 9.40407 8.29067C9.36059 8.20041 9.33801 8.10152 9.33801 8.00133C9.33801 7.90115 9.36059 7.80225 9.40407 7.712C9.44755 7.62174 9.51082 7.54244 9.58916 7.48C11.3765 6.058 12.4078 4.49667 12.6558 2.838C12.6837 2.65303 12.6707 2.4642 12.6176 2.28483C12.5645 2.10547 12.4726 1.93996 12.3485 1.8C12.2227 1.65387 12.0669 1.53655 11.8917 1.45602C11.7165 1.37549 11.526 1.33365 11.3332 1.33333ZM10.4538 13.3333H5.54516C5.43608 13.3333 5.32868 13.3065 5.23237 13.2552C5.13607 13.204 5.0538 13.1299 4.9928 13.0395C4.93179 12.9491 4.8939 12.8451 4.88246 12.7366C4.87101 12.6281 4.88636 12.5185 4.92716 12.4173C5.44921 11.2901 6.24463 10.3111 7.24116 9.56933L7.58649 9.29467C7.70446 9.20083 7.85075 9.14975 8.00149 9.14975C8.15223 9.14975 8.29852 9.20083 8.41649 9.29467L8.75583 9.56533C9.75095 10.31 10.5464 11.2893 11.0712 12.416C11.1122 12.5172 11.1278 12.6269 11.1165 12.7355C11.1052 12.8441 11.0675 12.9483 11.0065 13.0389C10.9455 13.1295 10.8633 13.2037 10.7669 13.255C10.6705 13.3064 10.563 13.3333 10.4538 13.3333ZM6.68916 12H9.30783C8.92745 11.5042 8.48823 11.0565 7.99983 10.6667C7.50927 11.055 7.06899 11.5029 6.68916 12Z" fill="#8383B0"/>
</g>
<defs>
<clipPath id="clip0">
<rect width="16" height="16" fill="white"/>
</clipPath>
</defs>
</svg>
